<?xml version="1.0" encoding="utf-8"?>
<!-- Generator: Adobe Illustrator 24.3.0, SVG Export Plug-In . SVG Version: 6.00 Build 0)  -->
<svg version="1.1" id="Layer_2_1_" xmlns="http://www.w3.org/2000/svg" xmlns:xlink="http://www.w3.org/1999/xlink" x="0px" y="0px"
	 viewBox="0 0 1080 1080" style="enable-background:new 0 0 1080 1080;" xml:space="preserve">
<style type="text/css">
	.st0{fill:#FFFFFF;}
	.st1{fill:#22497A;}
	.st2{fill:#22497D;}
	.st3{fill:#EB5D3A;}
	.st4{fill:#409C55;}
</style>
<path class="st0" d="M540,1080L540,1080C241.8,1080,0,838.2,0,540v0C0,241.8,241.8,0,540,0h0c298.2,0,540,241.8,540,540v0
	C1080,838.2,838.2,1080,540,1080z"/>
<path class="st1" d="M1065.3,579.1c0.9-12.9,1.4-25.9,1.4-39.1c0-10-0.3-19.9-0.8-29.7l-36.8-6c-1.8-24.9-5.4-49.2-10.8-73
	l33.5-16.5c-5.5-22.5-12.4-44.3-20.6-65.6l-36.9,5.7c-9.3-22.9-20.4-45-32.9-66l26.7-26.1c-12.1-19.5-25.5-38.2-40-55.9l-33.4,16.8
	c-15.9-18.8-33.2-36.4-51.7-52.6l17.4-33.1c-17.5-14.8-35.9-28.5-55.2-40.9l-26.5,26.3c-20.8-13-42.7-24.4-65.4-34.1l6.3-36.8
	c-21.1-8.6-42.8-15.9-65.2-21.8l-17.1,33.2c-23.6-5.8-47.9-9.9-72.8-12.1l-5.4-37c-12.9-0.9-25.9-1.4-39.1-1.4
	c-10,0-19.9,0.3-29.7,0.8l-6,36.8c-24.9,1.8-49.2,5.4-73,10.8l-16.5-33.5c-22.4,5.5-44.3,12.4-65.5,20.6l5.7,37
	c-22.9,9.3-45,20.4-66,32.9L262.8,92c-19.5,12.1-38.2,25.5-55.9,40l16.8,33.4c-18.8,15.9-36.4,33.2-52.6,51.7L138,199.7
	c-14.8,17.5-28.5,35.9-41,55.2l26.3,26.5c-12.9,20.8-24.4,42.7-34.1,65.4l-36.8-6.3c-8.6,21.1-15.9,42.8-21.8,65.2l33.2,17.1
	c-5.8,23.6-9.9,47.9-12.1,72.8l-37,5.4c-0.9,12.9-1.4,25.9-1.4,39.1c0,10,0.3,19.9,0.8,29.7l36.8,6c1.8,24.9,5.4,49.2,10.8,72.9
	l-33.5,16.5c5.5,22.4,12.4,44.3,20.6,65.6l36.9-5.7c9.3,22.9,20.4,45,33,66L92,817.2c12.1,19.5,25.5,38.2,40,55.9l33.4-16.8
	c15.9,18.8,33.2,36.4,51.7,52.6L199.7,942c17.5,14.8,35.9,28.5,55.2,40.9l26.5-26.3c20.8,12.9,42.7,24.4,65.4,34.1l-6.3,36.8
	c21.1,8.6,42.8,15.9,65.2,21.8l17.1-33.2c23.6,5.8,47.9,9.9,72.8,12.1l5.4,37c12.9,0.9,25.9,1.4,39.1,1.4c10,0,19.9-0.3,29.7-0.8
	l6-36.8c24.9-1.8,49.2-5.4,73-10.8l16.5,33.5c22.4-5.5,44.3-12.4,65.5-20.6l-5.7-36.9c22.9-9.3,45-20.4,66-33l26.1,26.7
	c19.5-12.1,38.2-25.4,55.9-40l-16.8-33.4c18.8-15.9,36.4-33.2,52.6-51.7l33.1,17.4c14.8-17.5,28.5-35.9,40.9-55.2l-26.3-26.5
	c12.9-20.8,24.4-42.7,34.1-65.4l36.8,6.3c8.6-21.1,15.9-42.8,21.8-65.2l-33.2-17.1c5.8-23.6,9.9-47.9,12.1-72.8L1065.3,579.1z
	 M986.8,590.5c-1.8,16.1-4.4,31.9-7.9,47.4c-6.8,30.7-16.8,60.2-29.5,88.2c-6.7,14.7-14.1,28.9-22.3,42.7
	c-15.9,26.8-34.4,51.8-55.4,74.7c-10.8,11.8-22.2,23.1-34.3,33.7c-23.2,20.5-48.6,38.6-75.7,54c-13.9,7.9-28.3,15.1-43.1,21.5
	c-28.2,12.2-57.8,21.6-88.7,27.9c-15.6,3.2-31.5,5.5-47.6,7c-14,1.3-28.2,2-42.5,2c-17.1,0-33.9-0.9-50.5-2.8
	c-16.1-1.8-31.9-4.4-47.5-7.9c-30.7-6.8-60.2-16.8-88.2-29.5c-14.7-6.7-28.9-14.1-42.7-22.3c-26.8-15.9-51.8-34.5-74.7-55.4
	c-11.8-10.8-23.1-22.3-33.7-34.3c-20.5-23.2-38.7-48.6-54-75.7c-7.9-13.9-15.1-28.3-21.5-43c-12.2-28.2-21.6-57.8-27.9-88.7
	c-3.2-15.6-5.5-31.5-7-47.6c-1.3-14-2-28.2-2-42.5c0-17.1,1-33.9,2.8-50.5c1.8-16.1,4.4-31.9,7.9-47.5c6.8-30.7,16.8-60.2,29.5-88.2
	c6.7-14.7,14.1-28.9,22.3-42.7c15.9-26.8,34.5-51.8,55.4-74.7c10.8-11.8,22.2-23.1,34.3-33.7c23.2-20.5,48.6-38.6,75.7-54
	c13.9-7.9,28.3-15.1,43-21.5c28.2-12.2,57.8-21.6,88.7-27.9c15.6-3.2,31.5-5.5,47.6-7c14-1.3,28.2-2,42.5-2c17.1,0,33.9,1,50.5,2.8
	c16.1,1.8,31.9,4.4,47.5,7.9c30.7,6.8,60.2,16.8,88.2,29.5c14.7,6.7,28.9,14.1,42.7,22.3c26.8,15.9,51.8,34.5,74.7,55.4
	c11.8,10.8,23.1,22.3,33.7,34.3c20.5,23.2,38.6,48.6,54,75.7c7.9,13.9,15.1,28.3,21.5,43c12.2,28.2,21.7,57.8,27.9,88.7
	c3.2,15.6,5.5,31.5,7,47.6c1.3,14,2,28.2,2,42.5C989.6,557.1,988.6,573.9,986.8,590.5z"/>
<path class="st2" d="M548.7,492.7h113.7c5.7,0,9.9,5.4,8.4,11l-123,456.5c-0.8,2.9-5,2.3-5-0.6l-2.7-361.8c0-4.8-3.9-8.6-8.7-8.6
	H426.7c-5.7,0-9.8-5.4-8.4-10.9l114.8-445.6c0.7-2.9,5-2.4,5,0.6L540,484C540,488.8,543.9,492.7,548.7,492.7z"/>
<path class="st3" d="M381.8,617.3h99.4l-64.9,43c-10.9,7.2-18.1,18.8-19.8,31.8c-2.8,21.5-10.6,55.3-32.5,74.4
	c-32.7,28.6-43.4,47.1-121,22.1c-3.1-1-3.7-5.2-1-7l48.3-32.3c24.2-16.2,30-49.3,12.8-72.7l0,0c-16.5-22.5-48-27.4-70.6-11.1
	l-47.2,34.1c-1.4,1-3.5,0.1-3.6-1.7c-1.1-15.6-0.8-73.2,56-104.9c0,0,30.4-19.7,86.9-5.8c13,3.2,26.8,0.3,37.5-7.8l36.2-25.2
	L381.8,617.3z"/>
<path class="st3" d="M569.2,464.1v-19.4l115-76.4c11.9-7.9,20.1-20.4,22.3-34.5c3.2-20.2,12.7-50.2,40.5-66.5
	c32.8-19.2,69.4-11.8,86.4-6.5c4.2,1.3,5,6.8,1.4,9.3l-43.2,30.2c-19.9,13.9-23.5,41.9-7.9,60.4l2.3,2.8
	c13.6,16.1,37.4,18.9,54.3,6.2L880,340c2.2-1.7,5.5-0.3,5.8,2.4c2.4,18,4.1,71.5-52.8,93.1c0,0-34,4.4-56.7-1.8
	c-13.4-3.7-27.8-0.9-39.3,7L703.6,464H569.2V464.1z"/>
<path class="st4" d="M408.7,501l20.3-74.9l-73.1-47.4c-1.8-1.2-2.9-3.2-3-5.3l-2.4-68.6c-0.1-2,0.8-3.9,2.3-5.2l32.9-28.7
	c1.2-1.1,2.7-1.6,4.3-1.6h15.6c1.1,0,2.2-0.3,3.1-0.8l20.6-11.1c4.7-2.5,4.6-9.3-0.1-11.7c-16-8-48.7-19.5-88.1-6
	c-54.1,18.5-116.5,119.6-121,127.1c-0.2,0.3-0.3,0.6-0.5,0.9c-1.4,3.4-9.3,23.3-6.1,28.1c2.8,4.3-17.7,2.5-25.6,1.7
	c-2-0.2-3.9,0.5-5.4,1.9l-25.1,25.1c-1.2,1.2-1.9,2.9-1.9,4.7v12.4c0,2.1,1,4,2.6,5.3l73.9,55.8c1.3,1,3,1.5,4.7,1.3l6.7-0.7
	c1.6-0.2,3.1-1,4.2-2.2l27.8-31.3c1.1-1.2,1.7-2.8,1.7-4.4v-6.6c0-1.6-0.6-3.1-1.6-4.3L265,442.3c-1-1.2-1.6-2.6-1.6-4.2l0,0
	c-0.1-3.9,3.2-7,7.1-6.8c11.2,0.8,31.8,1.4,34.3-4.2c1.1-2.6,4-4,6.8-3.8c3.5,0.3,7.8,1.2,11.6,3.7c0.3,0.2,0.5,0.4,0.7,0.6
	L408.7,501z"/>
<path class="st4" d="M648.5,688.4l26.9-108l200,135.4c2.5,1.7,3.2,5.1,1.5,7.6L817.6,811c-1.8,2.6-5.4,3.2-7.9,1.3L648.5,688.4z"/>
</svg>
